<?xml version="1.0" encoding="UTF-8"?><svg id="Layer_1" xmlns="http://www.w3.org/2000/svg" width="2000" height="2000" viewBox="0 0 2000 2000"><defs><style>.cls-1{fill:#3579f3;}</style></defs><path class="cls-1" d="M1403.24,1421.23c-.66-.03-1.33-.05-1.98-.07-86.68,83.88-198.91,141.51-323.87,160.14-23.51-46.91-40.34-96.71-50.2-147.95h-73.09c-9.87,51.38-26.77,101.31-50.38,148.32-131.65-19.04-249.31-81.35-338.04-172.06l-69.02-11.13c116.74,142.46,294.07,233.35,492.62,233.35,186.78,0,354.79-80.45,471.24-208.58-11.89-.41-23.64-.81-35.23-1.24-7.34-.27-14.7-.52-22.06-.78h0Z"/><path class="cls-1" d="M398.08,1035.98c-.91-13.47-1.38-27.06-1.38-40.76,0-72.32,12.96-141.6,36.67-205.66,46,1.61,91.46,8.76,135.44,21.2,50.31,14.24,98.66,35.37,143.62,63.01l43.89,26.99h117.22l-134.62-72.84c-87.61-47.4-161.22-116.85-213.57-201.36,108.55-136.44,276.03-223.91,463.94-223.91s356.97,88.3,465.48,225.84c-24.37,38.97-53.27,74.72-85.99,106.56-37.48,36.46-79.95,67.75-126.38,92.88l-134.62,72.84h117.21l43.89-26.99c83.49-51.33,178.69-80.23,276.38-84.1,23.68,64.03,36.63,133.27,36.63,205.55,0,13.7-.47,27.3-1.39,40.76h44.12c.86-13.48,1.29-27.06,1.29-40.76,0-351.57-285.02-636.58-636.61-636.58S352.67,643.64,352.67,995.22c0,13.69.43,27.28,1.28,40.76h44.13Z"/><path class="cls-1" d="M1028.86,948.14c2.31,3.68,8.43,2.22,12.18,2.26,171.06,1.79,342.13,17.05,511.21,42.61l132.54,219.27,34.49-144.17,180.34.36,65.95,56.13v54.38h-233.07l-13.32,51.05h125.41l140.95,122.08v2.22l-83.24,277.48,36.27-271.57-122.96-83.49c-544.4-7.36-1088.7-7.97-1633.11.35l-121.09,83.14,37.36,271.53L14.46,1354.35v-2.22c4.35.06,6.17-3,8.91-5.51,43.36-39.59,88.79-76.86,132.04-116.58h125.41l-13.32-51.05H34.44v-54.38c22.2-18.36,42.67-39.48,65.95-56.13l180.34-.36,34.49,144.17,132.54-219.27c171.27-25.56,344.68-41.78,518.02-42.55l5.37-2.31h57.71ZM1509.97,1026.4c-143.08-40.54-294.18-45.54-442.36-49.31-126.81-3.23-255.14-.84-381.68,13.25-65.91,7.33-132.08,18.61-195.92,36.05l-98.15,202.56c3.35,5.16,8.28.38,14.35.89,5.27.44,10.18,2.31,15.47,2.52,158.78,6.36,324.58,1.58,484.08,2.04,152.13.44,304.7,1.41,457.26.18,76.66-.62,156.59.57,233.01-4.77,3.02-.21,6.33.73,8.88,2.39l2.34-4.46-97.28-201.33Z"/><path class="cls-1" d="M109.9,1369.88l83.71-57.24c69.1-.24,138.12-5.28,207.06-3.81l-49.93,61.05H109.9Z"/><path class="cls-1" d="M1890.1,1369.88h-240.84l-47.71-61.05,54.28,1.21c50.3,1.13,100.3.63,150.56,2.6l83.71,57.24Z"/><path class="cls-1" d="M999.57,73.09c-469.73,0-850.57,380.78-850.57,850.5,0,48.76,4.1,96.56,11.99,143.05,18.25-12.36,36.06-25.38,53.63-38.82h0c-4.48-34.14-6.79-68.9-6.79-104.24,0-96.62,17.31-189.18,49-274.77,28.86,1.01,57.56,3.68,85.97,7.92,21.87-55.96,50.68-108.45,85.38-156.4-17.38-22.13-33.58-45.25-48.47-69.3,145.02-182.29,368.79-299.16,619.84-299.16s476.93,117.97,621.9,301.74c-14.87,23.78-31.02,46.64-48.32,68.54,34.19,47.56,62.6,99.56,84.22,154.95,28.09-4.29,56.46-7.02,84.99-8.15,31.64,85.55,48.94,178.06,48.94,274.63,0,21.56-.87,42.94-2.55,64.06,16.88,2.63,33.59,5.47,50.12,8.49,2.66.48,5.36.98,8.07,1.47,2.12-24.4,3.19-49.07,3.19-74.01,0-469.71-380.8-850.5-850.53-850.5Z"/><path class="cls-1" d="M252.97,1739.87c15.58,8.4,27.58,20.07,35.98,35,8.4,14.94,12.6,31.92,12.6,50.96s-4.2,35.84-12.6,50.96-20.4,27.02-35.98,35.7c-15.59,8.68-33.74,13.02-54.46,13.02h-82.6v-198.24h82.6c20.72,0,38.87,4.2,54.46,12.6ZM226.23,1858.59c8.21-7.65,12.32-18.57,12.32-32.76s-4.11-25.1-12.32-32.76c-8.22-7.65-19.32-11.48-33.32-11.48h-14.84v88.48h14.84c14,0,25.1-3.82,33.32-11.48Z"/><path class="cls-1" d="M404.31,1776.83v24.36h61.6v46.76h-61.6v28h70v49.56h-132.16v-198.24h132.16v49.56h-70Z"/><path class="cls-1" d="M522.32,1773.75c7.93-15.3,19.27-27.2,34.02-35.7,14.74-8.49,32.1-12.74,52.08-12.74,17.17,0,32.52,3.22,46.06,9.66,13.53,6.44,24.54,15.54,33.04,27.3,8.49,11.76,14.14,25.48,16.94,41.16h-65.52c-2.99-6.53-7.24-11.62-12.74-15.26-5.51-3.64-11.81-5.46-18.9-5.46-10.46,0-18.72,3.92-24.78,11.76-6.07,7.84-9.1,18.39-9.1,31.64s3.03,23.8,9.1,31.64c6.06,7.84,14.32,11.76,24.78,11.76,7.09,0,13.39-1.82,18.9-5.46,5.5-3.64,9.75-8.72,12.74-15.26h65.52c-2.8,15.68-8.45,29.4-16.94,41.16-8.5,11.76-19.51,20.86-33.04,27.3-13.54,6.44-28.89,9.66-46.06,9.66-19.98,0-37.34-4.24-52.08-12.74-14.75-8.49-26.09-20.39-34.02-35.7-7.94-15.3-11.9-32.76-11.9-52.36s3.96-37.05,11.9-52.36Z"/><path class="cls-1" d="M872.18,1895.55h-66.08l-9.8,29.96h-65.24l72.52-198.24h71.68l72.24,198.24h-65.52l-9.8-29.96ZM857.06,1848.79l-17.92-55.16-17.92,55.16h35.84Z"/><path class="cls-1" d="M1116.76,1739.87c15.58,8.4,27.58,20.07,35.98,35,8.4,14.94,12.6,31.92,12.6,50.96s-4.2,35.84-12.6,50.96-20.4,27.02-35.98,35.7c-15.59,8.68-33.74,13.02-54.46,13.02h-82.6v-198.24h82.6c20.72,0,38.87,4.2,54.46,12.6ZM1090.02,1858.59c8.21-7.65,12.32-18.57,12.32-32.76s-4.11-25.1-12.32-32.76c-8.22-7.65-19.32-11.48-33.32-11.48h-14.84v88.48h14.84c14,0,25.1-3.82,33.32-11.48Z"/><path class="cls-1" d="M1305.62,1925.51l-37.24-71.12h-.28v71.12h-62.16v-198.24h92.4c16.05,0,29.77,2.85,41.16,8.54,11.38,5.7,19.92,13.44,25.62,23.24,5.69,9.8,8.54,20.86,8.54,33.18,0,13.26-3.69,25.02-11.06,35.28-7.38,10.27-17.97,17.64-31.78,22.12l43.12,75.88h-68.32ZM1268.1,1812.95h24.64c5.97,0,10.45-1.35,13.44-4.06,2.98-2.7,4.48-6.95,4.48-12.74,0-5.22-1.54-9.33-4.62-12.32-3.08-2.98-7.52-4.48-13.3-4.48h-24.64v33.6Z"/><path class="cls-1" d="M1473.9,1727.27v198.24h-62.16v-198.24h62.16Z"/><path class="cls-1" d="M1719.74,1727.27l-66.64,198.24h-80.36l-66.64-198.24h66.08l40.88,136.36,40.6-136.36h66.08Z"/><path class="cls-1" d="M1814.09,1776.83v24.36h61.6v46.76h-61.6v28h70v49.56h-132.16v-198.24h132.16v49.56h-70Z"/></svg>